<?xml version="1.0" encoding="utf-8"?>
<!-- Generator: Adobe Illustrator 23.0.1, SVG Export Plug-In . SVG Version: 6.00 Build 0)  -->
<svg version="1.1" id="Layer_1" xmlns="http://www.w3.org/2000/svg" xmlns:xlink="http://www.w3.org/1999/xlink" x="0px" y="0px"
	 viewBox="0 0 1000 716" style="enable-background:new 0 0 1000 716;" xml:space="preserve">
<style type="text/css">
	.st0{fill:#FFFFFF;}
</style>
<g>
	<g>
		<g>
			<path class="st0" d="M138.2,559.3v52.4c0,31.4-32.3,42.9-57.6,42.9S23,643.1,23,611.6v-52.4h23v51.6c0,18.2,21,24.3,34.6,24.3
				s34.6-6,34.6-24.3v-51.6H138.2z"/>
			<path class="st0" d="M330.5,559.3v92h-22.7l-78.6-62.6v62.6h-22.7v-92h22.7l78.6,62.6v-62.6H330.5z"/>
			<path class="st0" d="M430.2,559.3v92h-23v-92H430.2z"/>
			<path class="st0" d="M627.3,559.3l-52.4,92h-26.5l-52.3-92h26.5l39.3,69l39.3-69H627.3z"/>
			<path class="st0" d="M800.3,559.3v18.8h-84.5v17.8h78.4v18.8h-78.4v17.8h84.5v18.8H692.7v-92H800.3z"/>
			<path class="st0" d="M977,632v19.4H868.7v-0.1h-0.2v-91.9h23V632H977z"/>
		</g>
	</g>
	<path class="st0" d="M482.1,428.2c-63.2-6.4-110.9-59.2-110.9-122.8V189c-9.8,0.2-23.2,9.1-55.9,30.7l-0.1,96.5
		c0,68.1,55.2,123.2,123.2,123.2c17.9,0,34.9-3.9,50.3-10.8C486.5,428.6,484.3,428.5,482.1,428.2z"/>
	<g>
		<path class="st0" d="M495.1,420.3c0.2,0,0.4,0,0.6,0c-0.2-0.2-0.5-0.3-0.7-0.5L495.1,420.3z"/>
		<path class="st0" d="M382.5,305.4c0,57.8,43.3,105.7,100.7,111.5c2.7,0.3,5.4,0.4,8.2,0.5c-32-22.3-53-59.2-53-101.1v-20
			c0-39.2-18.2-74-46.7-96.6c-3.5-2.8-6.5-5.1-9.2-6.9V305.4z"/>
	</g>
	<path class="st0" d="M371.2,61.5c-9.8,0.2-23.2,9.1-55.9,30.8v42.8c32.7-21.7,46.1-30.5,55.9-30.7V61.5z"/>
	<path class="st0" d="M391.7,72.2c-3.5-2.8-6.5-5.1-9.2-6.9v42.8c2.7,1.8,5.6,4.1,9.2,6.9c16.4,13,29.4,28.9,37.5,40
		c2.7,3.7,8.7,1.4,8.1-3.2C432.8,119.6,416,91.4,391.7,72.2z"/>
	<path class="st0" d="M371.2,125.2c-9.8,0.2-23.2,9-55.9,30.7v42.8c32.7-21.7,46.1-30.5,55.9-30.7V125.2z"/>
	<path class="st0" d="M391.7,135.9c-3.5-2.8-6.5-5.1-9.2-6.9v42.8c2.7,1.8,5.6,4.1,9.2,6.9c16.4,13,29.4,28.9,37.5,40
		c2.7,3.7,8.7,1.4,8.1-3.2C432.8,183.4,416,155.2,391.7,135.9z"/>
	<path class="st0" d="M628.8,61.5v42.9c9.8,0.2,23.2,9,55.9,30.7V92.3C652,70.6,638.6,61.7,628.8,61.5z"/>
	<path class="st0" d="M617.5,65.3c-2.7,1.8-5.6,4.1-9.2,6.9c-24.3,19.3-41.1,47.5-45.5,79.6c-0.6,4.6,5.3,7,8.1,3.2
		c8.1-11.1,21.1-27,37.5-40c3.5-2.8,6.5-5.1,9.2-6.9L617.5,65.3z"/>
	<path class="st0" d="M628.8,125.2v42.9c9.8,0.2,23.2,9,55.9,30.7V156C652,134.3,638.6,125.4,628.8,125.2z"/>
	<path class="st0" d="M617.5,129c-2.7,1.8-5.6,4.1-9.2,6.9c-24.3,19.3-41.1,47.5-45.5,79.6c-0.6,4.6,5.3,7,8.1,3.2
		c8.1-11.1,21.1-27,37.5-40c3.5-2.8,6.5-5.1,9.2-6.9V129z"/>
	<path class="st0" d="M684.7,219.7C652,198,638.6,189.2,628.8,189v116.4c0,63.6-47.7,116.4-110.9,122.8c-2.2,0.2-4.4,0.4-6.7,0.5
		c15.4,6.9,32.4,10.8,50.3,10.8c68.1,0,123.2-55.2,123.2-123.2L684.7,219.7z"/>
	<g>
		<path class="st0" d="M516.8,416.9c57.4-5.8,100.7-53.7,100.7-111.5V192.8c-2.7,1.8-5.6,4.1-9.2,6.9
			c-28.5,22.6-46.7,57.5-46.7,96.6v20c0,41.9-21,78.9-53,101.1C511.3,417.3,514.1,417.2,516.8,416.9z"/>
		<path class="st0" d="M505,419.8c-0.2,0.2-0.5,0.3-0.7,0.5c0.2,0,0.4,0,0.6,0L505,419.8z"/>
	</g>
</g>
</svg>
